Coordinates
version=1
nRows=8
nColumns=63
inDegrees=yes

Units are S.I. units (second, meters, Newtons, ...)
If the header above contains a line with 'inDegrees', this indicates whether rotational values are in degrees (yes) or radians (no).

endheader
time	pelvis_tilt	pelvis_list	pelvis_rotation	pelvis_tx	pelvis_ty	pelvis_tz	hip_flexion_r	hip_adduction_r	hip_rotation_r	knee_angle_r	knee_angle_r_beta	ankle_angle_r	subtalar_angle_r	mtp_angle_r	hip_flexion_l	hip_adduction_l	hip_rotation_l	knee_angle_l	knee_angle_l_beta	ankle_angle_l	subtalar_angle_l	mtp_angle_l	L5_S1_Flex_Ext	L5_S1_Lat_Bending	L5_S1_axial_rotation	L4_L5_Flex_Ext	L4_L5_Lat_Bending	L4_L5_axial_rotation	L3_L4_Flex_Ext	L3_L4_Lat_Bending	L3_L4_axial_rotation	L2_L3_Flex_Ext	L2_L3_Lat_Bending	L2_L3_axial_rotation	L1_L2_Flex_Ext	L1_L2_Lat_Bending	L1_L2_axial_rotation	L1_T12_Flex_Ext	L1_T12_Lat_Bending	L1_T12_axial_rotation	Abs_r3	Abs_r2	Abs_r1	Abs_t1	Abs_t2	neck_flexion	neck_bending	neck_rotation	arm_flex_r	arm_add_r	arm_rot_r	elbow_flex_r	pro_sup_r	wrist_flex_r	wrist_dev_r	arm_flex_l	arm_add_l	arm_rot_l	elbow_flex_l	pro_sup_l	wrist_flex_l	wrist_dev_l
2.950000	6.913793	-3.566957	92.694325	0.300756	1.058834	0.375974	-2.859699	1.576064	-14.136222	7.502007	0.130935	30.624549	16.367363	0.000000	-0.681181	-0.410070	-0.314456	10.539800	0.183954	27.675214	-0.704942	0.000000	0.065536	0.141026	-0.275759	0.121707	0.187565	-0.292994	0.107670	0.342891	-0.292994	0.074901	0.342891	-0.241289	0.060857	0.287581	-0.224054	0.037447	0.218450	-0.206819	0.468119	1.595317	-1.533690	0.000000	0.000000	13.637306	-2.864543	-8.152018	1.111453	-11.406379	41.538143	57.376545	24.657176	-1.217294	20.246757	10.082452	-9.546578	58.400126	55.138538	70.267968	-2.193997	6.396740
2.966667	6.864703	-3.611190	92.473746	0.300870	1.058793	0.376344	-2.732700	1.484852	-13.990204	7.573412	0.132181	30.631431	16.444817	0.000000	-0.660358	-0.317375	-0.263289	10.459279	0.182549	27.551889	-1.002063	0.000000	0.062573	0.139455	-0.208044	0.116204	0.185475	-0.221047	0.102801	0.339070	-0.221047	0.071514	0.339070	-0.182039	0.058105	0.284376	-0.169036	0.035754	0.216015	-0.156033	0.446951	1.577538	-1.157079	0.000000	0.000000	13.684332	-2.738842	-8.208683	1.029486	-11.457615	41.292584	57.429912	25.294955	-0.754296	19.763756	10.112886	-9.496037	58.208642	55.198782	70.381932	-2.234772	6.319665
2.983333	6.800170	-3.666513	92.211726	0.301029	1.058767	0.376820	-2.575823	1.367885	-13.821063	7.663062	0.133746	30.636765	16.551682	0.000000	-0.622496	-0.200851	-0.177723	10.378519	0.181139	27.398833	-1.385793	0.000000	0.060729	0.136351	-0.131865	0.112780	0.181347	-0.140107	0.099772	0.331524	-0.140107	0.069407	0.331524	-0.115382	0.056393	0.278047	-0.107140	0.034701	0.211208	-0.098899	0.433782	1.542433	-0.733394	0.000000	0.000000	13.764734	-2.599879	-8.259870	0.952234	-11.500808	41.025864	57.474434	25.831550	-0.318812	19.328931	10.186825	-9.444546	58.096689	55.227806	70.523029	-2.253610	6.230132
3.000000	6.719381	-3.718032	91.904104	0.301233	1.058778	0.377358	-2.415307	1.228151	-13.589636	7.754270	0.135338	30.633042	16.648578	0.000000	-0.591741	-0.061928	-0.090433	10.287188	0.179545	27.227667	-1.815271	0.000000	0.058645	0.131745	-0.044355	0.108910	0.175220	-0.047127	0.096349	0.320324	-0.047127	0.067026	0.320324	-0.038811	0.054458	0.268654	-0.036039	0.033510	0.204073	-0.033266	0.418898	1.490323	-0.246690	0.000000	0.000000	13.870175	-2.441277	-8.306822	0.853016	-11.527028	40.675485	57.511520	26.448638	0.107249	18.949676	10.335699	-9.391511	58.163634	55.207543	70.475076	-2.270312	6.097054
3.016667	6.620925	-3.766747	91.581880	0.301456	1.058816	0.377920	-2.255026	1.066922	-13.342934	7.851507	0.137035	30.636727	16.748901	0.000000	-0.562915	0.098089	0.018590	10.190898	0.177865	27.045705	-2.291413	0.000000	0.057637	0.124990	0.047021	0.107038	0.166237	0.049960	0.094692	0.303902	0.049960	0.065873	0.303902	0.041143	0.053522	0.254881	0.038205	0.032934	0.193610	0.035266	0.411696	1.413917	0.261517	0.000000	0.000000	13.995695	-2.257497	-8.339072	0.744306	-11.535983	40.285757	57.521854	27.105212	0.553794	18.604375	10.533697	-9.338607	58.352919	55.139759	70.414857	-2.268309	5.924152
3.033333	6.505238	-3.803631	91.257598	0.301684	1.058889	0.378472	-2.110578	0.886506	-13.093386	7.948796	0.138733	30.654092	16.852302	0.000000	-0.549685	0.279556	0.174422	10.085088	0.176018	26.842529	-2.852786	0.000000	0.056973	0.115853	0.138373	0.105805	0.154085	0.147022	0.093601	0.281686	0.147022	0.065114	0.281686	0.121077	0.052905	0.236248	0.112428	0.032554	0.179457	0.103780	0.406952	1.310555	0.769591	0.000000	0.000000	14.141732	-2.042209	-8.354337	0.647751	-11.539763	39.937083	57.512953	27.606121	0.954152	18.249128	10.766584	-9.288242	58.635404	55.029866	70.325576	-2.256066	5.717108
3.050000	6.381195	-3.829318	90.950558	0.301902	1.058985	0.378974	-1.987666	0.700818	-12.853867	8.039884	0.140322	30.678257	16.949021	0.000000	-0.547203	0.465071	0.303948	9.983782	0.174250	26.646297	-3.391663	0.000000	0.057070	0.105124	0.226470	0.105984	0.139815	0.240624	0.093760	0.255599	0.240624	0.065225	0.255599	0.198161	0.052995	0.214369	0.184007	0.032610	0.162837	0.169852	0.407644	1.189185	1.259558	0.000000	0.000000	14.310942	-1.803157	-8.371705	0.563994	-11.543598	39.630907	57.492859	28.001596	1.271955	17.925211	11.021593	-9.241982	59.001291	54.888481	70.213138	-2.287771	5.456820
3.066667	6.255318	-3.843815	90.674278	0.302107	1.059095	0.379396	-1.892670	0.520030	-12.634227	8.116416	0.141658	30.708530	17.036424	0.000000	-0.550629	0.637301	0.316751	9.906394	0.172899	26.487760	-3.780466	0.000000	0.057695	0.093513	0.304556	0.107145	0.124373	0.323591	0.094787	0.227369	0.323591	0.065940	0.227369	0.266487	0.053576	0.190693	0.247452	0.032967	0.144852	0.228417	0.412109	1.057843	1.693849	0.000000	0.000000	14.494409	-1.550041	-8.370712	0.534756	-11.564770	39.482858	57.456597	28.171980	1.484652	17.587392	11.242760	-9.201834	59.317486	54.750113	70.197647	-2.331775	5.212546
